<svg width="17" height="16" viewBox="0 0 17 16" fill="none" xmlns="http://www.w3.org/2000/svg">
<g clip-path="url(#clip0_74_125)">
<path d="M14.6725 2.97625H8.65445L7.75348 0.224906C7.70954 0.09075 7.58432 0 7.44313 0H1.74354C0.896852 0 0.208008 0.688844 0.208008 1.53556V11.488C0.208008 12.3347 0.896852 13.0236 1.74354 13.0236H7.74713L8.6631 15.7765C8.70748 15.9099 8.83232 16 8.97291 16H14.6724C15.5192 16 16.208 15.3112 16.208 14.4644V4.51188C16.208 3.66516 15.5192 2.97625 14.6725 2.97625ZM1.74354 12.3705C1.25695 12.3705 0.86107 11.9746 0.86107 11.488V1.53556C0.86107 1.04897 1.25695 0.653063 1.74354 0.653063H7.20648L11.0434 12.3706H1.74354V12.3705ZM11.1598 8.95425C11.2996 9.16803 11.4677 9.40534 11.6663 9.65616C11.4804 9.86566 11.275 10.0778 11.0488 10.2882L10.1498 7.54284H10.4083C10.5214 7.82238 10.7558 8.33644 11.1598 8.95425ZM11.1203 7.54284H13.0629C12.892 7.91497 12.5845 8.49497 12.0917 9.13969C11.9497 8.95444 11.8259 8.77856 11.7198 8.61728C11.4377 8.18847 11.2436 7.81178 11.1203 7.54284ZM8.43545 13.0236H10.7894L9.09932 15.0189L8.43545 13.0236ZM14.6725 15.3469H9.67732L11.7376 12.9146C11.7894 12.8568 11.8211 12.7808 11.8211 12.6971C11.8211 12.654 11.8128 12.6129 11.7977 12.5752L11.2711 10.9672C11.5769 10.6997 11.85 10.428 12.093 10.1597C12.6413 10.7649 13.3582 11.4074 14.2743 11.9683C14.3275 12.0009 14.3863 12.0164 14.4444 12.0164C14.5543 12.0164 14.6617 11.9609 14.7232 11.8603C14.8174 11.7066 14.769 11.5055 14.6152 11.4114C13.7255 10.8666 13.0373 10.2397 12.5189 9.65662C13.2439 8.73969 13.6216 7.92447 13.7752 7.54287H14.7386C14.9189 7.54287 15.0651 7.39669 15.0651 7.21634C15.0651 7.036 14.9189 6.88981 14.7386 6.88981H12.3978V6.33469C12.3978 6.15434 12.2515 6.00816 12.0712 6.00816C11.8909 6.00816 11.7447 6.15434 11.7447 6.33469V6.88978H9.93588L8.86823 3.62931H14.6724C15.159 3.62931 15.5549 4.02522 15.5549 4.51181V14.4644H15.5549C15.5549 14.951 15.1591 15.3469 14.6725 15.3469Z" fill="#111111" stroke="#111111" stroke-width="0.304"/>
<path d="M6.88342 6.21932H5.03336C4.85302 6.21932 4.70683 6.36551 4.70683 6.54585C4.70683 6.72619 4.85302 6.87238 5.03336 6.87238H6.52639C6.37295 7.68313 5.6592 8.29826 4.80452 8.29826C3.83823 8.29826 3.05211 7.51213 3.05211 6.54585C3.05211 5.57957 3.83823 4.79344 4.80452 4.79344C5.22061 4.79344 5.62398 4.94179 5.94023 5.21119C6.07745 5.32813 6.28361 5.31166 6.40055 5.17438C6.51748 5.03707 6.50098 4.83101 6.3637 4.71407C5.92942 4.3441 5.37567 4.14038 4.80452 4.14038C3.47814 4.14038 2.39908 5.21947 2.39908 6.54582C2.39905 7.87216 3.47811 8.95122 4.80448 8.95122C6.13086 8.95122 7.20992 7.87213 7.20992 6.54576C7.20995 6.36554 7.06377 6.21932 6.88342 6.21932Z" fill="#111111" stroke="#111111" stroke-width="0.304"/>
<path d="M6.5087 10.9823H6.36251C6.1822 10.9823 6.03598 11.1285 6.03598 11.3088C6.03598 11.4892 6.1822 11.6354 6.36251 11.6354H6.5087C6.68901 11.6354 6.83523 11.4892 6.83523 11.3088C6.83523 11.1285 6.68901 10.9823 6.5087 10.9823Z" fill="#111111" stroke="#111111" stroke-width="0.304"/>
<path d="M5.30617 10.9823H2.13455C1.95423 10.9823 1.80801 11.1285 1.80801 11.3088C1.80801 11.4892 1.95423 11.6354 2.13455 11.6354H5.30617C5.48648 11.6354 5.6327 11.4892 5.6327 11.3088C5.6327 11.1285 5.48648 10.9823 5.30617 10.9823Z" fill="#111111" stroke="#111111" stroke-width="0.304"/>
</g>
<defs>
<clipPath id="clip0_74_125">
<rect width="16" height="16" fill="white" transform="translate(0.208008)"/>
</clipPath>
</defs>
</svg>
